<svg xmlns="http://www.w3.org/2000/svg" version="1.1" xmlns:xlink="http://www.w3.org/1999/xlink" xmlns:svgjs="http://svgjs.dev/svgjs" width="1218" height="1218"><svg id="SvgjsSvg1001" xmlns="http://www.w3.org/2000/svg" viewBox="0 0 1218 1218"><defs><style>.b{fill:#a0d1f2;}.c{font-family:Futura-Medium, Futura;font-size:767.61px;}</style></defs><g><path class="b" d="M609,1217.5c-82.15,0-161.84-16.09-236.86-47.82-72.46-30.65-137.54-74.52-193.42-130.41s-99.76-120.96-130.41-193.42C16.59,770.84,.5,691.15,.5,609s16.09-161.84,47.82-236.86c30.65-72.46,74.52-137.54,130.41-193.42s120.96-99.76,193.42-130.41C447.16,16.59,526.85,.5,609,.5s161.84,16.09,236.86,47.82c72.46,30.65,137.54,74.52,193.42,130.41s99.76,120.96,130.41,193.42c31.73,75.02,47.82,154.71,47.82,236.86s-16.09,161.84-47.82,236.86c-30.65,72.46-74.52,137.54-130.41,193.42s-120.96,99.76-193.42,130.41c-75.02,31.73-154.71,47.82-236.86,47.82Z"></path><path class="b" d="M609,1c82.08,0,161.7,16.08,236.66,47.78,36.03,15.24,70.77,34.1,103.28,56.06,32.19,21.75,62.47,46.73,89.98,74.24,27.51,27.51,52.49,57.79,74.24,89.98,21.96,32.5,40.82,67.25,56.06,103.28,31.7,74.96,47.78,154.58,47.78,236.66s-16.08,161.7-47.78,236.66c-15.24,36.03-34.1,70.77-56.06,103.28-21.75,32.19-46.73,62.47-74.24,89.98s-57.79,52.49-89.98,74.24c-32.5,21.96-67.25,40.82-103.28,56.06-74.96,31.7-154.58,47.78-236.66,47.78s-161.7-16.08-236.66-47.78c-36.03-15.24-70.77-34.1-103.28-56.06-32.19-21.75-62.47-46.73-89.98-74.24-27.51-27.51-52.49-57.79-74.24-89.98-21.96-32.5-40.82-67.25-56.06-103.28C17.08,770.7,1,691.08,1,609s16.08-161.7,47.78-236.66c15.24-36.03,34.1-70.77,56.06-103.28,21.75-32.19,46.73-62.47,74.24-89.98,27.51-27.51,57.79-52.49,89.98-74.24,32.5-21.96,67.25-40.82,103.28-56.06C447.3,17.08,526.92,1,609,1m0-1C272.66,0,0,272.66,0,609s272.66,609,609,609,609-272.66,609-609S945.34,0,609,0h0Z"></path></g><text class="c" transform="translate(202.19 934.31)" svgjs:data="{&quot;leading&quot;:&quot;1.3&quot;}"><tspan x="0" y="0">kb</tspan></text></svg><style>@media (prefers-color-scheme: light) { :root { filter: none; } }
@media (prefers-color-scheme: dark) { :root { filter: none; } }
</style></svg>